<svg width="145" height="166" viewBox="0 0 145 166" fill="none" xmlns="http://www.w3.org/2000/svg">
<mask id="path-1-inside-1_2001_2" fill="white">
<path d="M70.4691 1.02315C69.6728 1.62501 67.0849 3.3102 64.6961 4.81483C62.3072 6.31947 59.5202 8.12504 58.5248 8.90745C57.5295 9.62967 55.0743 11.2547 53.0836 12.4584C51.0928 13.7223 47.0451 16.2501 44.1254 18.176C31.5839 26.3613 23.0238 31.9585 7.29715 42.1299C-1.1302 47.5466 -0.997485 47.4262 1.45773 49.954C4.11201 52.6623 7.49622 57.4772 8.95608 60.5466C12.0749 66.9865 12.1412 68.0096 12.6057 91.1811C13.0702 114.834 13.0039 114.352 16.7199 121.454C18.7769 125.246 23.6874 130.422 26.7398 131.866C28.5314 132.769 50.3629 142.7 61.3782 147.575C70.7346 151.788 70.3364 151.246 70.3364 158.95C70.3364 162.862 70.6018 165.57 71.0663 165.811C71.3981 166.052 72.4598 166.052 73.3888 165.871C74.9814 165.51 74.9814 165.39 74.9814 159.01C74.9814 151.788 75.2468 151.246 80.29 149.2C81.5508 148.658 86.5275 146.552 91.2389 144.505C117.981 132.829 119.109 132.288 124.351 127.052C127.802 123.741 129.062 121.755 130.721 117.542C131.916 114.352 132.049 112.547 132.049 94.1903C132.049 73.6671 132.38 70.4772 135.167 62.5929C136.494 58.7411 139.613 54.0466 143.064 50.5558C145.984 47.6067 145.851 47.1253 140.94 44.0558C136.627 41.4076 135.366 40.565 130.323 37.1345C128.001 35.5696 126.01 34.3057 125.811 34.3057C125.479 34.3057 121.763 31.8983 103.913 20.0418C100.993 18.1158 98.3391 16.4306 97.941 16.3103C97.3437 16.0695 92.6988 13.0603 78.4983 3.61113C75.5123 1.625 72.7916 -3.8147e-06 72.4598 -3.8147e-06C72.128 -3.8147e-06 71.2654 0.481484 70.4691 1.02315ZM76.9058 7.94448C79.0955 9.38893 81.4844 10.9538 82.2807 11.4352C83.077 11.9167 86.1958 13.963 89.1818 15.9492C92.2343 17.9353 95.353 19.9816 96.2157 20.4631C97.012 20.9446 98.9363 22.2084 100.463 23.2316C101.922 24.2548 104.378 25.7594 105.837 26.602C107.297 27.4446 109.155 28.6483 109.952 29.2502C110.748 29.9122 113.999 32.0187 117.118 34.0048C120.237 35.9909 124.816 39.0002 127.337 40.6252C129.859 42.3104 133.243 44.4771 134.968 45.4401C138.485 47.4262 138.751 48.5697 136.428 51.3382C133.707 54.6485 130.92 59.7642 129.394 64.4587C128.001 68.6115 127.868 70.3569 127.669 89.6764C127.337 112.607 126.939 115.977 123.688 120.973C120.502 125.908 116.123 129.158 108.16 132.468C104.776 133.913 89.5136 140.533 82.4798 143.663C79.0955 145.167 76.0431 146.191 75.7113 145.95C74.9151 145.529 74.716 137.283 75.5123 136.26C75.7777 135.839 78.1002 134.695 80.6218 133.612C94.6231 127.774 97.6755 126.209 101.392 122.899C105.771 118.927 106.833 117.723 108.492 114.894C109.553 112.968 109.952 111.885 111.478 105.746C111.81 104.362 112.075 100.45 112.141 97.0191C112.141 90.1579 111.677 89.4357 108.359 91.0607C107.364 91.5422 103.847 92.9866 100.529 94.1903C97.2774 95.3941 93.9595 96.5978 93.2296 96.8987C92.4997 97.1996 90.2435 98.1024 88.1865 98.945C86.1294 99.7274 82.7452 101.653 80.6881 103.158C75.0478 107.371 74.915 107.251 75.1141 98.3431L75.3132 90.8199L77.6357 89.7366C78.8965 89.1348 81.2853 88.1718 82.9443 87.5699C87.6556 85.9449 93.6278 83.4773 97.2774 81.6116C101.392 79.5653 107.629 72.8847 109.288 68.8522C111.013 64.6994 111.81 59.4031 111.81 52.6623C111.81 44.5373 111.478 44.116 107.098 45.9817C101.06 48.5697 93.8268 51.1577 92.6324 51.1577C92.1015 51.1577 89.9118 49.5929 87.7883 47.6669C73.4552 34.9076 73.1234 34.6669 71.5308 35.6298C70.6682 36.1715 66.2223 39.8428 61.5773 43.9354C53.4817 50.9771 53.0172 51.2179 50.9601 50.8568C49.7657 50.616 48.1731 50.0142 47.4432 49.5929C46.7133 49.1114 45.7843 48.7503 45.3198 48.7503C44.9216 48.7503 42.5991 47.9077 40.1439 46.8845C33.5746 44.1762 33.5746 44.1762 33.3091 52.3614C33.0437 60.4263 33.9064 65.1207 36.5606 70.1161C40.1439 76.8569 46.1824 81.431 57.1977 85.7644C58.3921 86.1857 60.4492 87.0283 61.8427 87.5097C63.1698 88.0514 64.5633 88.4727 64.8951 88.4727C65.2933 88.4727 66.6868 89.0144 67.9476 89.7366L70.3364 91.0005V98.7644C70.3364 107.431 70.0046 107.913 66.6204 104.663C64.5633 102.676 59.3875 99.3061 58.3921 99.3061C58.1267 99.3061 56.9986 98.945 55.9369 98.4635C54.9416 97.982 53.349 97.32 52.42 96.9589C51.491 96.6579 49.3676 95.8154 47.6423 95.1533C45.917 94.4311 44.1254 93.8894 43.6609 93.8894C43.13 93.8894 42.4664 93.6487 42.0683 93.3477C40.8739 92.2644 34.7026 90.3986 33.9064 90.8199C32.9774 91.3616 33.2428 105.084 34.3045 109.538C36.1625 117.241 42.8646 124.223 52.42 128.316C55.8706 129.82 61.3118 132.167 64.5633 133.552L70.3364 136.079V140.834C70.3364 143.422 70.071 145.709 69.7392 145.89C69.4074 146.13 68.2793 145.83 67.2176 145.348C66.2223 144.867 57.065 140.774 46.9124 136.26C26.2753 127.052 24.2182 125.728 20.5022 118.686L18.3124 114.653L17.8479 93.2876C17.4498 73.2458 16.7199 64.88 15.1936 63.4957C14.8619 63.1948 14.5964 62.5328 14.5964 61.9911C14.5964 60.9679 10.2169 52.9031 9.35422 52.3614C8.55794 51.8197 6.63358 49.1114 6.63358 48.4493C6.63358 47.7873 8.69065 46.403 22.7584 37.2548C26.1426 35.0882 32.4465 30.9955 36.8261 28.1668C41.2056 25.3381 47.8413 21.0047 51.6237 18.5973C55.4061 16.1297 61.3782 12.2177 64.8951 9.81024C68.4121 7.46301 71.7299 5.47687 72.1944 5.47687C72.6589 5.41669 74.7823 6.56021 76.9058 7.94448ZM79.7591 46.7641C83.3424 50.0142 86.2621 52.9031 86.2621 53.2642C86.2621 53.5651 84.935 54.6484 83.276 55.5512C80.0909 57.417 74.3178 62.9541 74.3178 64.2179C74.3178 65.6624 71.7299 65.0004 70.5355 63.3152C68.8765 61.0281 64.5633 57.1762 61.1791 55.1299L58.2594 53.3244L65.2269 47.1253C69.0093 43.6947 72.3935 40.9261 72.7253 40.9261C73.0571 40.9261 76.2422 43.5743 79.7591 46.7641ZM43.9926 53.0234C55.5388 57.2966 57.6622 58.1994 60.3165 60.0651C67.0186 65.0004 70.2701 71.2597 70.3364 79.5653C70.3364 84.7412 70.27 84.8616 68.7438 84.8616C66.8195 84.8616 56.5341 80.9495 50.562 77.9402C47.9077 76.6162 43.13 72.1624 41.8029 69.8152C39.2813 65.3615 38.485 62.292 38.485 56.9957C38.485 50.9771 38.485 50.9771 43.9926 53.0234ZM106.368 57.7179C106.236 63.255 105.174 67.0467 102.918 70.4171C101.126 72.9448 95.7512 77.5791 93.0969 78.7828C88.7837 80.769 83.1433 83.056 82.6788 83.056C82.347 83.056 81.1526 83.4773 79.9582 84.019C75.7777 85.8245 75.3132 85.2829 75.3132 78.843C75.3795 72.2226 76.1758 69.3337 79.0955 65.3615C82.0816 61.2689 87.3238 57.9587 95.5521 55.0697C97.211 54.5281 99.2681 53.7457 100.197 53.3846C106.302 50.9169 106.501 51.0373 106.368 57.7179ZM42.7319 98.0422C47.1778 99.908 50.2966 101.112 50.6947 101.112C51.6901 101.112 60.1174 105.024 61.5773 106.167C67.2176 110.621 70.3364 117.241 70.3364 124.704C70.3364 129.82 70.27 130.001 68.8765 130.001C68.0139 130.001 65.426 129.158 63.0371 128.075C60.6483 127.052 57.6622 125.788 56.4014 125.306C55.1406 124.825 53.6144 124.163 53.0836 123.922C52.5527 123.621 51.491 123.14 50.6947 122.839C47.0451 121.394 41.7365 115.376 39.6131 110.14C38.485 107.431 38.0205 98.1626 38.9495 97.32C39.5467 96.7181 39.6794 96.7783 42.7319 98.0422ZM106.368 103.218C106.302 106.167 105.904 109.177 105.572 109.839C105.174 110.501 104.577 111.704 104.179 112.547C101.06 119.167 97.1447 121.876 81.5508 128.436C79.4937 129.278 77.1712 130.001 76.4413 130.001C75.0478 130.001 74.9814 129.7 74.9814 125.126C74.9814 113.209 79.9582 106.769 93.2296 101.714C95.0876 100.991 97.6092 100.028 98.87 99.5469C100.131 99.0654 101.657 98.4033 102.188 98.1024C102.719 97.8015 103.913 97.6209 104.842 97.6811C106.501 97.8015 106.501 97.8617 106.368 103.218Z"/>
</mask>
<path d="M70.4691 1.02315C69.6728 1.62501 67.0849 3.3102 64.6961 4.81483C62.3072 6.31947 59.5202 8.12504 58.5248 8.90745C57.5295 9.62967 55.0743 11.2547 53.0836 12.4584C51.0928 13.7223 47.0451 16.2501 44.1254 18.176C31.5839 26.3613 23.0238 31.9585 7.29715 42.1299C-1.1302 47.5466 -0.997485 47.4262 1.45773 49.954C4.11201 52.6623 7.49622 57.4772 8.95608 60.5466C12.0749 66.9865 12.1412 68.0096 12.6057 91.1811C13.0702 114.834 13.0039 114.352 16.7199 121.454C18.7769 125.246 23.6874 130.422 26.7398 131.866C28.5314 132.769 50.3629 142.7 61.3782 147.575C70.7346 151.788 70.3364 151.246 70.3364 158.95C70.3364 162.862 70.6018 165.57 71.0663 165.811C71.3981 166.052 72.4598 166.052 73.3888 165.871C74.9814 165.51 74.9814 165.39 74.9814 159.01C74.9814 151.788 75.2468 151.246 80.29 149.2C81.5508 148.658 86.5275 146.552 91.2389 144.505C117.981 132.829 119.109 132.288 124.351 127.052C127.802 123.741 129.062 121.755 130.721 117.542C131.916 114.352 132.049 112.547 132.049 94.1903C132.049 73.6671 132.38 70.4772 135.167 62.5929C136.494 58.7411 139.613 54.0466 143.064 50.5558C145.984 47.6067 145.851 47.1253 140.94 44.0558C136.627 41.4076 135.366 40.565 130.323 37.1345C128.001 35.5696 126.01 34.3057 125.811 34.3057C125.479 34.3057 121.763 31.8983 103.913 20.0418C100.993 18.1158 98.3391 16.4306 97.941 16.3103C97.3437 16.0695 92.6988 13.0603 78.4983 3.61113C75.5123 1.625 72.7916 -3.8147e-06 72.4598 -3.8147e-06C72.128 -3.8147e-06 71.2654 0.481484 70.4691 1.02315ZM76.9058 7.94448C79.0955 9.38893 81.4844 10.9538 82.2807 11.4352C83.077 11.9167 86.1958 13.963 89.1818 15.9492C92.2343 17.9353 95.353 19.9816 96.2157 20.4631C97.012 20.9446 98.9363 22.2084 100.463 23.2316C101.922 24.2548 104.378 25.7594 105.837 26.602C107.297 27.4446 109.155 28.6483 109.952 29.2502C110.748 29.9122 113.999 32.0187 117.118 34.0048C120.237 35.9909 124.816 39.0002 127.337 40.6252C129.859 42.3104 133.243 44.4771 134.968 45.4401C138.485 47.4262 138.751 48.5697 136.428 51.3382C133.707 54.6485 130.92 59.7642 129.394 64.4587C128.001 68.6115 127.868 70.3569 127.669 89.6764C127.337 112.607 126.939 115.977 123.688 120.973C120.502 125.908 116.123 129.158 108.16 132.468C104.776 133.913 89.5136 140.533 82.4798 143.663C79.0955 145.167 76.0431 146.191 75.7113 145.95C74.9151 145.529 74.716 137.283 75.5123 136.26C75.7777 135.839 78.1002 134.695 80.6218 133.612C94.6231 127.774 97.6755 126.209 101.392 122.899C105.771 118.927 106.833 117.723 108.492 114.894C109.553 112.968 109.952 111.885 111.478 105.746C111.81 104.362 112.075 100.45 112.141 97.0191C112.141 90.1579 111.677 89.4357 108.359 91.0607C107.364 91.5422 103.847 92.9866 100.529 94.1903C97.2774 95.3941 93.9595 96.5978 93.2296 96.8987C92.4997 97.1996 90.2435 98.1024 88.1865 98.945C86.1294 99.7274 82.7452 101.653 80.6881 103.158C75.0478 107.371 74.915 107.251 75.1141 98.3431L75.3132 90.8199L77.6357 89.7366C78.8965 89.1348 81.2853 88.1718 82.9443 87.5699C87.6556 85.9449 93.6278 83.4773 97.2774 81.6116C101.392 79.5653 107.629 72.8847 109.288 68.8522C111.013 64.6994 111.81 59.4031 111.81 52.6623C111.81 44.5373 111.478 44.116 107.098 45.9817C101.06 48.5697 93.8268 51.1577 92.6324 51.1577C92.1015 51.1577 89.9118 49.5929 87.7883 47.6669C73.4552 34.9076 73.1234 34.6669 71.5308 35.6298C70.6682 36.1715 66.2223 39.8428 61.5773 43.9354C53.4817 50.9771 53.0172 51.2179 50.9601 50.8568C49.7657 50.616 48.1731 50.0142 47.4432 49.5929C46.7133 49.1114 45.7843 48.7503 45.3198 48.7503C44.9216 48.7503 42.5991 47.9077 40.1439 46.8845C33.5746 44.1762 33.5746 44.1762 33.3091 52.3614C33.0437 60.4263 33.9064 65.1207 36.5606 70.1161C40.1439 76.8569 46.1824 81.431 57.1977 85.7644C58.3921 86.1857 60.4492 87.0283 61.8427 87.5097C63.1698 88.0514 64.5633 88.4727 64.8951 88.4727C65.2933 88.4727 66.6868 89.0144 67.9476 89.7366L70.3364 91.0005V98.7644C70.3364 107.431 70.0046 107.913 66.6204 104.663C64.5633 102.676 59.3875 99.3061 58.3921 99.3061C58.1267 99.3061 56.9986 98.945 55.9369 98.4635C54.9416 97.982 53.349 97.32 52.42 96.9589C51.491 96.6579 49.3676 95.8154 47.6423 95.1533C45.917 94.4311 44.1254 93.8894 43.6609 93.8894C43.13 93.8894 42.4664 93.6487 42.0683 93.3477C40.8739 92.2644 34.7026 90.3986 33.9064 90.8199C32.9774 91.3616 33.2428 105.084 34.3045 109.538C36.1625 117.241 42.8646 124.223 52.42 128.316C55.8706 129.82 61.3118 132.167 64.5633 133.552L70.3364 136.079V140.834C70.3364 143.422 70.071 145.709 69.7392 145.89C69.4074 146.13 68.2793 145.83 67.2176 145.348C66.2223 144.867 57.065 140.774 46.9124 136.26C26.2753 127.052 24.2182 125.728 20.5022 118.686L18.3124 114.653L17.8479 93.2876C17.4498 73.2458 16.7199 64.88 15.1936 63.4957C14.8619 63.1948 14.5964 62.5328 14.5964 61.9911C14.5964 60.9679 10.2169 52.9031 9.35422 52.3614C8.55794 51.8197 6.63358 49.1114 6.63358 48.4493C6.63358 47.7873 8.69065 46.403 22.7584 37.2548C26.1426 35.0882 32.4465 30.9955 36.8261 28.1668C41.2056 25.3381 47.8413 21.0047 51.6237 18.5973C55.4061 16.1297 61.3782 12.2177 64.8951 9.81024C68.4121 7.46301 71.7299 5.47687 72.1944 5.47687C72.6589 5.41669 74.7823 6.56021 76.9058 7.94448ZM79.7591 46.7641C83.3424 50.0142 86.2621 52.9031 86.2621 53.2642C86.2621 53.5651 84.935 54.6484 83.276 55.5512C80.0909 57.417 74.3178 62.9541 74.3178 64.2179C74.3178 65.6624 71.7299 65.0004 70.5355 63.3152C68.8765 61.0281 64.5633 57.1762 61.1791 55.1299L58.2594 53.3244L65.2269 47.1253C69.0093 43.6947 72.3935 40.9261 72.7253 40.9261C73.0571 40.9261 76.2422 43.5743 79.7591 46.7641ZM43.9926 53.0234C55.5388 57.2966 57.6622 58.1994 60.3165 60.0651C67.0186 65.0004 70.2701 71.2597 70.3364 79.5653C70.3364 84.7412 70.27 84.8616 68.7438 84.8616C66.8195 84.8616 56.5341 80.9495 50.562 77.9402C47.9077 76.6162 43.13 72.1624 41.8029 69.8152C39.2813 65.3615 38.485 62.292 38.485 56.9957C38.485 50.9771 38.485 50.9771 43.9926 53.0234ZM106.368 57.7179C106.236 63.255 105.174 67.0467 102.918 70.4171C101.126 72.9448 95.7512 77.5791 93.0969 78.7828C88.7837 80.769 83.1433 83.056 82.6788 83.056C82.347 83.056 81.1526 83.4773 79.9582 84.019C75.7777 85.8245 75.3132 85.2829 75.3132 78.843C75.3795 72.2226 76.1758 69.3337 79.0955 65.3615C82.0816 61.2689 87.3238 57.9587 95.5521 55.0697C97.211 54.5281 99.2681 53.7457 100.197 53.3846C106.302 50.9169 106.501 51.0373 106.368 57.7179ZM42.7319 98.0422C47.1778 99.908 50.2966 101.112 50.6947 101.112C51.6901 101.112 60.1174 105.024 61.5773 106.167C67.2176 110.621 70.3364 117.241 70.3364 124.704C70.3364 129.82 70.27 130.001 68.8765 130.001C68.0139 130.001 65.426 129.158 63.0371 128.075C60.6483 127.052 57.6622 125.788 56.4014 125.306C55.1406 124.825 53.6144 124.163 53.0836 123.922C52.5527 123.621 51.491 123.14 50.6947 122.839C47.0451 121.394 41.7365 115.376 39.6131 110.14C38.485 107.431 38.0205 98.1626 38.9495 97.32C39.5467 96.7181 39.6794 96.7783 42.7319 98.0422ZM106.368 103.218C106.302 106.167 105.904 109.177 105.572 109.839C105.174 110.501 104.577 111.704 104.179 112.547C101.06 119.167 97.1447 121.876 81.5508 128.436C79.4937 129.278 77.1712 130.001 76.4413 130.001C75.0478 130.001 74.9814 129.7 74.9814 125.126C74.9814 113.209 79.9582 106.769 93.2296 101.714C95.0876 100.991 97.6092 100.028 98.87 99.5469C100.131 99.0654 101.657 98.4033 102.188 98.1024C102.719 97.8015 103.913 97.6209 104.842 97.6811C106.501 97.8015 106.501 97.8617 106.368 103.218Z" fill="#22C480" stroke="#16A34A" stroke-width="10" mask="url(#path-1-inside-1_2001_2)"/>
</svg>
