<svg width="17" height="17" viewBox="0 0 17 17" fill="none" xmlns="http://www.w3.org/2000/svg">
<path d="M3.7303 9.2567C3.7303 8.14559 3.93036 7.08336 4.33048 6.07003C4.72172 5.09225 5.27078 4.23225 5.97766 3.49003C6.68455 2.74781 7.49147 2.18559 8.39842 1.80336C9.30537 2.18559 10.1123 2.74781 10.8192 3.49003C11.5261 4.23225 12.0751 5.09225 12.4664 6.07003C12.8665 7.08336 13.0665 8.14559 13.0665 9.2567C13.0665 9.79892 13.0176 10.3323 12.9198 10.8567L14.2136 12.07C14.2669 12.1234 14.3003 12.1878 14.3136 12.2634C14.3269 12.3389 14.3158 12.4123 14.2803 12.4834L12.6131 15.5234C12.5686 15.6034 12.5019 15.6567 12.413 15.6834C12.3241 15.71 12.2396 15.7011 12.1596 15.6567C12.1329 15.6478 12.1062 15.63 12.0796 15.6034L10.5991 14.11C10.4657 13.9856 10.3057 13.9234 10.119 13.9234H6.67788C6.49116 13.9234 6.33111 13.9856 6.19773 14.11L4.71727 15.6034C4.64614 15.6656 4.56611 15.6967 4.4772 15.6967C4.38828 15.6967 4.30825 15.6656 4.23712 15.6034C4.21934 15.5856 4.20155 15.5589 4.18377 15.5234L2.51658 12.4834C2.48102 12.4123 2.4699 12.3389 2.48324 12.2634C2.49658 12.1878 2.52992 12.1234 2.58327 12.07L3.87701 10.8567C3.7792 10.3323 3.7303 9.79892 3.7303 9.2567ZM4.71727 13.71L5.26411 13.1767C5.45083 12.99 5.66646 12.8456 5.91098 12.7434C6.1555 12.6411 6.41113 12.59 6.67788 12.59H10.119C10.3857 12.59 10.6413 12.6411 10.8859 12.7434C11.1304 12.8456 11.346 12.99 11.5327 13.1767L12.0796 13.71L12.7331 12.51L11.9995 11.83C11.8395 11.67 11.7239 11.4834 11.6528 11.27C11.5816 11.0567 11.5683 10.8389 11.6128 10.6167C11.6928 10.1634 11.7328 9.71003 11.7328 9.2567C11.7328 8.40336 11.595 7.58559 11.3193 6.80336C11.0437 6.03892 10.6547 5.35225 10.1523 4.74336C9.64992 4.13447 9.0653 3.64781 8.39842 3.28336C7.73155 3.64781 7.14692 4.13447 6.64454 4.74336C6.14216 5.35225 5.75315 6.03892 5.47751 6.80336C5.20187 7.58559 5.06405 8.40336 5.06405 9.2567C5.06405 9.71003 5.10406 10.1634 5.18408 10.6167C5.22854 10.8389 5.2152 11.0567 5.14407 11.27C5.07294 11.4834 4.95735 11.67 4.7973 11.83L4.06373 12.51L4.71727 13.71ZM8.39842 9.2567C8.15835 9.2567 7.93605 9.1967 7.73155 9.0767C7.52704 8.9567 7.36476 8.79448 7.24473 8.59003C7.12469 8.38559 7.06467 8.16336 7.06467 7.92336C7.06467 7.68336 7.12469 7.46114 7.24473 7.2567C7.36476 7.05225 7.52704 6.89003 7.73155 6.77003C7.93605 6.65003 8.15835 6.59003 8.39842 6.59003C8.6385 6.59003 8.86079 6.65003 9.0653 6.77003C9.2698 6.89003 9.43208 7.05225 9.55211 7.2567C9.67215 7.46114 9.73217 7.68336 9.73217 7.92336C9.73217 8.16336 9.67215 8.38559 9.55211 8.59003C9.43208 8.79448 9.2698 8.9567 9.0653 9.0767C8.86079 9.1967 8.6385 9.2567 8.39842 9.2567Z" fill="white"/>
</svg>
