<svg width="14" height="14" viewBox="0 0 14 14" fill="none" xmlns="http://www.w3.org/2000/svg">
<path d="M6.85942 0.083354C7.76637 0.083354 8.63331 0.256687 9.46024 0.603354C10.2516 0.941132 10.9563 1.41891 11.5742 2.03669C12.1922 2.65447 12.6701 3.35891 13.008 4.15002C13.3548 4.97669 13.5282 5.84335 13.5282 6.75002C13.5282 7.65669 13.3548 8.52335 13.008 9.35002C12.6701 10.1411 12.1922 10.8456 11.5742 11.4634C10.9563 12.0811 10.2516 12.5589 9.46024 12.8967C8.63331 13.2434 7.76637 13.4167 6.85942 13.4167C5.95247 13.4167 5.08554 13.2434 4.25861 12.8967C3.46725 12.5589 2.76259 12.0811 2.14462 11.4634C1.52665 10.8456 1.04872 10.1411 0.710836 9.35002C0.364061 8.52335 0.190674 7.65669 0.190674 6.75002C0.190674 5.84335 0.364061 4.97669 0.710836 4.15002C1.04872 3.35891 1.52665 2.65447 2.14462 2.03669C2.76259 1.41891 3.46725 0.941132 4.25861 0.603354C5.08554 0.256687 5.95247 0.083354 6.85942 0.083354ZM6.85942 1.41669C5.89023 1.41669 4.99217 1.66113 4.16525 2.15002C3.365 2.62113 2.72924 3.25669 2.25799 4.05669C1.76894 4.88335 1.52442 5.78113 1.52442 6.75002C1.52442 7.71891 1.76894 8.61669 2.25799 9.44335C2.72924 10.2434 3.365 10.8789 4.16525 11.35C4.99217 11.8389 5.89023 12.0834 6.85942 12.0834C7.82862 12.0834 8.72667 11.8389 9.5536 11.35C10.3538 10.8789 10.9896 10.2434 11.4609 9.44335C11.9499 8.61669 12.1944 7.71891 12.1944 6.75002C12.1944 5.78113 11.9499 4.88335 11.4609 4.05669C10.9896 3.25669 10.3538 2.62113 9.5536 2.15002C8.72667 1.66113 7.82862 1.41669 6.85942 1.41669ZM9.42022 3.64335C9.50025 3.59002 9.58694 3.5678 9.6803 3.57669C9.77367 3.58558 9.85369 3.62335 9.92038 3.69002C9.98707 3.75669 10.0249 3.83669 10.0337 3.93002C10.0426 4.02335 10.0204 4.11002 9.96706 4.19002C8.50883 6.22558 7.70858 7.31447 7.56631 7.45669C7.37069 7.65224 7.13507 7.75002 6.85942 7.75002C6.58378 7.75002 6.34815 7.65224 6.15254 7.45669C5.95692 7.26113 5.85911 7.02558 5.85911 6.75002C5.85911 6.47446 5.95692 6.23891 6.15254 6.04335C6.4015 5.79447 7.49073 4.99446 9.42022 3.64335ZM10.5272 6.08335C10.714 6.08335 10.8718 6.1478 11.0007 6.27669C11.1296 6.40558 11.1941 6.56335 11.1941 6.75002C11.1941 6.93669 11.1296 7.09447 11.0007 7.22335C10.8718 7.35224 10.714 7.41669 10.5272 7.41669C10.3405 7.41669 10.1827 7.35224 10.0538 7.22335C9.92483 7.09447 9.86036 6.93669 9.86036 6.75002C9.86036 6.56335 9.92483 6.40558 10.0538 6.27669C10.1827 6.1478 10.3405 6.08335 10.5272 6.08335ZM3.19161 6.08335C3.37834 6.08335 3.53616 6.1478 3.66509 6.27669C3.79402 6.40558 3.85849 6.56335 3.85849 6.75002C3.85849 6.93669 3.79402 7.09447 3.66509 7.22335C3.53616 7.35224 3.37834 7.41669 3.19161 7.41669C3.00489 7.41669 2.84706 7.35224 2.71813 7.22335C2.5892 7.09447 2.52474 6.93669 2.52474 6.75002C2.52474 6.56335 2.5892 6.40558 2.71813 6.27669C2.84706 6.1478 3.00489 6.08335 3.19161 6.08335ZM4.73876 3.68335C4.87214 3.81669 4.93882 3.97447 4.93882 4.15669C4.93882 4.33891 4.87214 4.49669 4.73876 4.63002C4.60539 4.76335 4.44756 4.83002 4.26528 4.83002C4.083 4.83002 3.9274 4.76335 3.79847 4.63002C3.66954 4.49669 3.60507 4.33891 3.60507 4.15669C3.60507 3.97447 3.66954 3.81891 3.79847 3.69002C3.9274 3.56113 4.083 3.49669 4.26528 3.49669C4.44756 3.49669 4.60539 3.55891 4.73876 3.68335ZM6.85942 2.41669C7.04615 2.41669 7.20398 2.48113 7.3329 2.61002C7.46183 2.73891 7.5263 2.89669 7.5263 3.08335C7.5263 3.27002 7.46183 3.4278 7.3329 3.55669C7.20398 3.68558 7.04615 3.75002 6.85942 3.75002C6.6727 3.75002 6.51487 3.68558 6.38594 3.55669C6.25701 3.4278 6.19255 3.27002 6.19255 3.08335C6.19255 2.89669 6.25701 2.73891 6.38594 2.61002C6.51487 2.48113 6.6727 2.41669 6.85942 2.41669Z" fill="white"/>
</svg>
