<svg width="3505" height="847" viewBox="0 0 3505 847" fill="none" xmlns="http://www.w3.org/2000/svg">
<g clip-path="url(#clip0_1_427)">
<path d="M733.546 451.85C733.546 490.774 733.546 528.306 733.546 566.659C713.322 566.659 694 566.659 674.068 566.659C674.068 483.584 674.068 400.994 674.068 318.485C691.618 318.485 709.184 318.485 728.15 318.485C728.15 328.18 728.15 336.746 728.15 348.149C748.687 326.579 768.934 312.908 796.022 312.828C823.746 312.745 844.597 323.6 860.971 352.326C867.604 343.752 872.41 333.838 879.817 328.625C907.352 309.244 936.852 306.648 966.533 322.097C986.459 332.468 997.85 352.433 998.401 375.908C999.885 439.086 998.908 502.337 998.908 566.531C980.595 566.531 960.438 566.531 938.84 566.531C938.84 561.43 938.84 556.423 938.84 551.415C938.84 502.038 938.913 452.66 938.803 403.283C938.759 383.84 930.978 371.319 918.706 366.858C898.895 359.658 879.388 376.641 874.126 392.631C870.925 402.355 869.087 413.199 868.971 423.573C868.442 470.975 868.739 518.39 868.739 566.641C847.704 566.641 827.549 566.641 806.147 566.641C806.147 546.617 806.147 527 806.147 507.383C806.148 472.584 806.29 437.784 806.1 402.986C805.972 379.519 797.596 367.315 780.266 364.301C767.362 362.058 744.394 376.919 741.365 391.946C737.498 411.126 736.042 430.925 733.546 451.85Z" fill="#F26A2B"/>
<path d="M154.462 520.021C138.349 495.038 126.996 468.528 124.699 438.594C122.773 413.5 121.201 387.937 123.323 362.998C125.685 335.253 132.69 308.268 146.878 284.243C166.914 250.315 194.132 227.754 229.465 220.643C262.4 214.015 295.258 213.733 327.06 230.968C359.848 248.737 378.485 277.846 388.86 318.171C372.178 323.23 355.886 327.927 339.731 333.161C330.49 336.155 325.875 335.648 321.629 322.82C304.03 269.649 243.162 268.812 214.815 297.976C196.31 317.014 190.312 341.926 188.46 367.41C185.88 402.921 185.576 439.025 200.499 472.393C211.352 496.661 238.774 514.041 262.958 512.054C291.064 509.745 311.915 491.803 320.576 462.474C327.592 438.714 327.588 438.728 348.639 446.298C359.078 450.051 369.503 453.859 379.994 457.418C387.252 459.88 388.938 463.356 386.54 472.602C369.856 536.911 326.503 573.87 265.336 573.612C233.087 573.476 203.443 567.498 177.755 544.757C169.636 537.569 162.629 528.785 154.462 520.021Z" fill="#F26A2B" fill-opacity="0.59"/>
<path d="M1204.6 568.548C1177.94 576.805 1153.49 573.98 1131.38 556.067C1125.81 551.554 1121.02 545.81 1114.09 538.84C1114.09 560.513 1114.09 579.997 1114.09 599.481C1114.09 619.186 1114.09 638.891 1114.09 659.625C1094.25 659.625 1074.93 659.625 1054.8 659.625C1054.8 545.844 1054.8 431.912 1054.8 317.096C1073.3 317.096 1091.79 317.096 1111.39 317.096C1111.39 326.424 1111.39 335.533 1111.39 346.26C1126.73 328.344 1143.11 316.828 1163.42 312.345C1184.12 307.773 1203.43 311.822 1221.33 323.144C1248.76 340.488 1263.47 368.645 1269.05 402.559C1274.82 437.667 1273.65 472.812 1261.68 506.361C1251.12 535.968 1232.82 557.407 1204.6 568.548ZM1115 456.991C1118.7 475.418 1122.54 493.085 1136.17 506.934C1151.07 522.084 1187.19 519.365 1197.15 498.526C1214.69 461.825 1215.44 424.614 1198.43 388.814C1182.77 355.859 1139.98 362.311 1126.01 387.832C1114.3 409.21 1113.98 431.428 1115 456.991Z" fill="#F26A2B"/>
<path d="M555.303 376.434C537.174 358.113 499.235 360.48 488.66 387.273C487.119 391.176 480.347 395.264 476.515 394.709C461.259 392.499 446.208 388.484 431.082 385.13C436.936 346.714 459.483 319.578 498.257 314.592C524.431 311.226 552.234 313.51 578.055 319.804C609.532 327.477 619.615 351.26 620.611 383.625C621.781 421.658 621.036 459.773 620.828 497.851C620.706 520.316 623.438 541.977 632.4 562.332C633.24 564.241 632.957 566.778 633.269 569.704C613.665 569.704 594.591 569.704 574.586 569.704C572.14 561.89 569.525 553.534 567.541 547.195C551.632 555.596 536.59 566.05 520.24 571.648C486.937 583.051 451.648 569.398 434.789 539.657C412.777 500.824 426.319 442.312 472.659 429.209C496.662 422.423 520.925 416.756 544.797 409.446C563.784 403.633 565.721 396.698 555.303 376.434ZM553.121 506.093C564.202 489.321 560.459 470.602 560.345 451.608C551.136 453.804 543.598 455.553 536.08 457.408C528.522 459.272 520.693 460.365 513.517 463.401C505.676 466.719 497.372 470.503 491.241 476.603C484.51 483.299 483.462 493.317 487.481 503.297C492.828 516.576 501.911 523.553 514.635 525.168C529.97 527.114 541.158 517.853 553.121 506.093Z" fill="#F26A2B"/>
<path d="M1654.87 572.667C1612.82 573.029 1576.31 541.889 1565.2 495.777C1555.79 456.702 1555.57 417.074 1569.5 378.401C1581.4 345.365 1603.98 326.857 1633.89 317.805C1635.7 339.063 1636.57 358.858 1637.44 378.653C1626.74 391.947 1621.84 407.737 1622.39 425.508C1622.95 443.637 1622.2 462.191 1625.49 479.73C1628.59 496.228 1638.2 509.687 1654.07 517.988C1654.87 537.372 1654.87 555.019 1654.87 572.667Z" fill="#41BA9D"/>
<path d="M1407.01 572.665C1366.28 568.509 1339.6 548.032 1324.83 501.746C1313.19 465.22 1313.54 427.607 1323.97 389.93C1332.63 358.632 1350.15 337.128 1375.37 322.495C1378.64 320.6 1381.94 318.789 1386.1 318.104C1387.85 340.983 1388.72 362.699 1389.18 385.312C1385.17 397.067 1381.55 407.926 1377.55 419.95C1384.73 420.548 1388.36 420.85 1391.99 422.436C1391.99 436.665 1391.99 449.611 1391.99 462.556C1388.31 462.876 1384.63 463.197 1381.03 463.511C1377.48 483.984 1387.17 504.549 1406.68 519.662C1407.05 538.791 1407.03 555.728 1407.01 572.665Z" fill="#1EB4A6"/>
<path d="M1875.08 567.824C1840.73 558.278 1816.1 535.996 1804.39 497.707C1789.9 450.33 1791.78 404.705 1817.48 362.115C1831.22 339.336 1851.1 326.283 1874.28 318.115C1876.1 339.939 1877.03 360.607 1877.59 382.167C1849.73 417.987 1852.71 473.496 1877.39 506.163C1876.36 527.46 1875.72 547.642 1875.08 567.824Z" fill="#62C095"/>
<path d="M1947.87 318.702C1981.61 328.776 2005.7 353.306 2017 389.008C2035.27 446.786 2029.03 501.233 1986.38 544.467C1976.69 554.284 1963.63 559.864 1950.96 566.09C1949.13 555.974 1948.43 547.164 1947.78 538.351C1946.9 526.323 1946.05 514.293 1945.54 501.389C1971.05 470.505 1969.5 416.391 1943.01 380.249C1944.13 374.248 1944.91 369.266 1945.23 364.248C1946.21 349.074 1947.01 333.885 1947.87 318.702Z" fill="#77C48F"/>
<path d="M1449.57 316.687C1487.99 327.084 1509.91 356.409 1519.2 397.742C1523.78 418.134 1524.09 439.749 1526.56 462.941C1501.6 462.941 1479.25 462.941 1455.74 461.476C1453.74 447.055 1452.91 434.101 1453.13 420.954C1457.37 420.6 1460.54 420.438 1463.58 420.283C1464.88 404.188 1459.66 389.751 1447.2 371.837C1448.15 352.672 1448.86 334.68 1449.57 316.687Z" fill="#30B7A1"/>
<path d="M1656.03 572.857C1654.87 555.019 1654.87 537.372 1654.87 518.432C1660.01 517.293 1665.19 517.963 1670.28 517.509C1691.7 515.603 1701.59 505.369 1707.67 480.89C1708.59 477.212 1713.29 471.628 1715.62 471.991C1733.66 474.805 1751.56 478.863 1769.19 482.472C1760.64 531.117 1736.62 561.846 1694.46 571.715C1682.47 574.521 1669.63 572.73 1656.03 572.857Z" fill="#50BD99"/>
<path d="M1408.17 572.857C1407.03 555.728 1407.05 538.791 1407.09 520.512C1417.2 519.638 1427.62 522.139 1437.28 520.091C1451.27 517.126 1456.91 503.415 1461.08 487.424C1481.24 490.895 1501.38 494.361 1521.53 497.829C1518.02 529.614 1489.35 563.135 1457.45 569.884C1441.79 573.198 1425.4 572.132 1408.17 572.857Z" fill="#2CB7A2"/>
<path d="M1695.02 315.873C1731.72 318.484 1762.84 359.862 1764.68 394.121C1745.69 397.921 1726.62 401.737 1708.55 405.353C1703.38 394.875 1698.71 385.416 1693.48 374.377C1693.62 353.822 1694.32 334.848 1695.02 315.873Z" fill="#52BD99"/>
<path d="M1945.18 502.264C1946.05 514.293 1946.9 526.323 1947.78 538.351C1948.43 547.164 1949.13 555.974 1950.04 565.903C1928.87 576.976 1906.77 573.617 1884.73 571.228C1881.87 570.918 1879.04 570.231 1875.64 568.771C1875.72 547.642 1876.36 527.46 1878.21 506.603C1903.1 524.294 1930.43 519.867 1945.18 502.264Z" fill="#6DC292"/>
<path d="M1947.33 317.747C1947.01 333.885 1946.21 349.073 1945.23 364.248C1944.91 369.266 1944.13 374.247 1942.21 379.833C1937.06 377.858 1933.48 374.651 1929.42 372.845C1910.93 364.636 1894.03 370.058 1877.96 381.275C1877.03 360.607 1876.1 339.939 1875.18 317.978C1899.05 316.721 1922.91 316.757 1947.33 317.747Z" fill="#6CC292"/>
<path d="M1448.52 316.437C1448.86 334.679 1448.15 352.672 1446.25 371.668C1420.28 357.02 1401.08 367.739 1389.59 384.415C1388.72 362.699 1387.85 340.983 1386.98 317.975C1407.14 316.517 1427.31 316.352 1448.52 316.437Z" fill="#26B5A4"/>
<path d="M1694.38 314.886C1694.32 334.848 1693.61 353.822 1692.68 373.916C1674.13 362.804 1656.33 363.519 1638.26 378.211C1636.57 358.858 1635.7 339.062 1634.83 317.974C1654.47 315.754 1674.11 314.826 1694.38 314.886Z" fill="#49BC9B"/>
<path d="M1452.07 421.146C1452.91 434.101 1453.74 447.055 1454.58 461.283C1434.49 462.684 1414.4 462.812 1393.15 462.748C1391.99 449.611 1391.99 436.666 1393.15 422.244C1413.57 420.894 1432.82 421.02 1452.07 421.146Z" fill="#27B6A3"/>
</g>
<defs>
<clipPath id="clip0_1_427">
<rect width="3505" height="847" fill="white"/>
</clipPath>
</defs>
</svg>
