<svg width="158" height="40" viewBox="0 0 158 40" fill="none" xmlns="http://www.w3.org/2000/svg">
<mask id="path-1-inside-1_2005_4" fill="white">
<path d="M17.0098 0.246544C16.8176 0.391569 16.1929 0.797639 15.6163 1.1602C15.0397 1.52277 14.3669 1.95784 14.1267 2.14637C13.8864 2.3204 13.2938 2.71197 12.8133 3.00203C12.3328 3.30658 11.3557 3.91568 10.6509 4.37976C7.62369 6.35211 5.55747 7.70085 1.76138 10.1518C-0.272807 11.457 -0.240772 11.428 0.351865 12.0371C0.992555 12.6897 1.80943 13.8499 2.16181 14.5896C2.91462 16.1413 2.93064 16.3879 3.04276 21.9713C3.15488 27.6708 3.13886 27.5548 4.03583 29.2661C4.53236 30.1798 5.71764 31.427 6.45443 31.7751C6.8869 31.9926 12.1566 34.3855 14.8154 35.5602C17.0739 36.5754 16.9778 36.4449 16.9778 38.3012C16.9778 39.2439 17.0418 39.8965 17.1539 39.9545C17.234 40.0125 17.4903 40.0125 17.7145 39.969C18.099 39.882 18.099 39.853 18.099 38.3157C18.099 36.5754 18.163 36.4449 19.3803 35.9518C19.6847 35.8213 20.886 35.3137 22.0232 34.8206C28.4781 32.0071 28.7504 31.8766 30.0158 30.6149C30.8487 29.8172 31.153 29.3386 31.5534 28.3235C31.8417 27.5548 31.8738 27.1197 31.8738 22.6965C31.8738 17.7511 31.9539 16.9825 32.6266 15.0826C32.9469 14.1545 33.6997 13.0233 34.5326 12.1821C35.2374 11.4715 35.2054 11.3555 34.0201 10.6159C32.979 9.97774 32.6746 9.77471 31.4573 8.94806C30.8967 8.571 30.4162 8.26645 30.3682 8.26645C30.2881 8.26645 29.3911 7.68634 25.0825 4.82934C24.3777 4.36526 23.737 3.95919 23.6409 3.93019C23.4968 3.87218 22.3756 3.14705 18.9479 0.870152C18.2271 0.391568 17.5704 0 17.4903 0C17.4102 0 17.202 0.116021 17.0098 0.246544ZM18.5635 1.91433C19.092 2.26239 19.6686 2.63946 19.8609 2.75548C20.0531 2.8715 20.8059 3.36459 21.5266 3.84317C22.2634 4.32175 23.0163 4.81484 23.2245 4.93086C23.4167 5.04688 23.8812 5.35143 24.2496 5.59798C24.602 5.84452 25.1946 6.20709 25.547 6.41012C25.8994 6.61316 26.3478 6.90321 26.54 7.04823C26.7322 7.20776 27.5171 7.71535 28.2699 8.19393C29.0227 8.67252 30.1279 9.39764 30.7366 9.78921C31.3452 10.1953 32.1621 10.7174 32.5785 10.9494C33.4275 11.428 33.4915 11.7035 32.9309 12.3707C32.2742 13.1683 31.6015 14.401 31.2331 15.5322C30.8967 16.5329 30.8647 16.9535 30.8166 21.6088C30.7366 27.1342 30.6405 27.9464 29.8556 29.1501C29.0868 30.3393 28.0296 31.1224 26.1076 31.9201C25.2907 32.2681 21.6067 33.8634 19.9089 34.6176C19.092 34.9801 18.3552 35.2267 18.2752 35.1686C18.0829 35.0671 18.0349 33.0803 18.2271 32.8337C18.2912 32.7322 18.8518 32.4567 19.4604 32.1956C22.8401 30.7889 23.5769 30.4118 24.4738 29.6142C25.531 28.657 25.7872 28.367 26.1877 27.6853C26.4439 27.2213 26.54 26.9602 26.9084 25.481C26.9885 25.1474 27.0526 24.2047 27.0686 23.3781C27.0686 21.7248 26.9565 21.5508 26.1556 21.9423C25.9154 22.0584 25.0665 22.4064 24.2656 22.6965C23.4808 22.9865 22.6799 23.2766 22.5037 23.3491C22.3275 23.4216 21.7829 23.6391 21.2864 23.8422C20.7899 24.0307 19.973 24.4948 19.4764 24.8573C18.115 25.8725 18.0829 25.8435 18.131 23.6971L18.179 21.8843L18.7396 21.6233C19.044 21.4783 19.6206 21.2462 20.021 21.1012C21.1583 20.7096 22.5998 20.115 23.4808 19.6654C24.4738 19.1724 25.9794 17.5626 26.3799 16.5909C26.7963 15.5902 26.9885 14.314 26.9885 12.6897C26.9885 10.7319 26.9084 10.6304 25.8513 11.0799C24.3937 11.7035 22.6479 12.3272 22.3595 12.3272C22.2314 12.3272 21.7028 11.9501 21.1903 11.486C17.7306 8.41147 17.6505 8.35346 17.2661 8.5855C17.0578 8.71602 15.9847 9.60068 14.8635 10.5869C12.9094 12.2836 12.7973 12.3417 12.3007 12.2546C12.0124 12.1966 11.628 12.0516 11.4518 11.9501C11.2756 11.8341 11.0514 11.7471 10.9393 11.7471C10.8432 11.7471 10.2826 11.544 9.68991 11.2975C8.10421 10.6449 8.10421 10.6449 8.04014 12.6172C7.97607 14.5605 8.18429 15.6917 8.82498 16.8955C9.68991 18.5197 11.1475 19.6219 13.8063 20.6661C14.0947 20.7676 14.5912 20.9707 14.9275 21.0867C15.2479 21.2172 15.5843 21.3187 15.6643 21.3187C15.7604 21.3187 16.0968 21.4492 16.4011 21.6233L16.9778 21.9278V23.7987C16.9778 25.887 16.8977 26.003 16.0808 25.2199C15.5843 24.7413 14.3349 23.9292 14.0947 23.9292C14.0306 23.9292 13.7583 23.8422 13.502 23.7261C13.2618 23.6101 12.8773 23.4506 12.6531 23.3636C12.4289 23.2911 11.9163 23.088 11.4999 22.9285C11.0834 22.7545 10.6509 22.624 10.5388 22.624C10.4107 22.624 10.2505 22.5659 10.1544 22.4934C9.8661 22.2324 8.3765 21.7828 8.18429 21.8843C7.96005 22.0148 8.02412 25.3214 8.2804 26.3946C8.72888 28.2509 10.3466 29.9332 12.6531 30.9194C13.486 31.282 14.7994 31.8476 15.5843 32.1811L16.9778 32.7902V33.9359C16.9778 34.5595 16.9137 35.1106 16.8336 35.1541C16.7535 35.2122 16.4812 35.1396 16.2249 35.0236C15.9847 34.9076 13.7743 33.9214 11.3237 32.8337C6.34231 30.6149 5.84578 30.2958 4.94881 28.599L4.42024 27.6273L4.30812 22.4789C4.21202 17.6496 4.03583 15.6337 3.66743 15.3002C3.58735 15.2277 3.52328 15.0681 3.52328 14.9376C3.52328 14.6911 2.46614 12.7477 2.25792 12.6172C2.06571 12.4867 1.60121 11.8341 1.60121 11.6745C1.60121 11.515 2.09774 11.1815 5.4934 8.97707C6.31028 8.45498 7.83191 7.4688 8.88905 6.78719C9.94619 6.10557 11.5479 5.06138 12.4609 4.48128C13.3739 3.88668 14.8154 2.94402 15.6643 2.36391C16.5133 1.79832 17.3141 1.31973 17.4262 1.31973C17.5384 1.30523 18.0509 1.58078 18.5635 1.91433ZM19.2522 11.2685C20.1171 12.0516 20.8219 12.7477 20.8219 12.8347C20.8219 12.9073 20.5015 13.1683 20.1011 13.3858C19.3323 13.8354 17.9388 15.1697 17.9388 15.4742C17.9388 15.8223 17.3141 15.6627 17.0258 15.2567C16.6254 14.7056 15.5843 13.7774 14.7674 13.2843L14.0626 12.8492L15.7444 11.3555C16.6574 10.5288 17.4743 9.86172 17.5544 9.86172C17.6345 9.86172 18.4033 10.4998 19.2522 11.2685ZM10.6189 12.7767C13.4059 13.8064 13.9185 14.024 14.5592 14.4735C16.1769 15.6627 16.9617 17.171 16.9778 19.1724C16.9778 20.4196 16.9617 20.4486 16.5933 20.4486C16.1288 20.4486 13.6462 19.5059 12.2046 18.7808C11.5639 18.4617 10.4107 17.3885 10.0903 16.8229C9.48169 15.7498 9.28948 15.0101 9.28948 13.7339C9.28948 12.2836 9.28948 12.2836 10.6189 12.7767ZM25.6751 13.9079C25.6431 15.2422 25.3868 16.1558 24.8422 16.968C24.4098 17.5771 23.1124 18.6938 22.4717 18.9838C21.4305 19.4624 20.0691 20.0135 19.957 20.0135C19.8769 20.0135 19.5886 20.115 19.3003 20.2455C18.2912 20.6806 18.179 20.5501 18.179 18.9983C18.1951 17.403 18.3873 16.7069 19.092 15.7498C19.8128 14.7636 21.0782 13.9659 23.0643 13.2698C23.4647 13.1393 23.9613 12.9508 24.1855 12.8637C25.6591 12.2691 25.7071 12.2981 25.6751 13.9079ZM10.3146 23.6246C11.3877 24.0742 12.1405 24.3643 12.2367 24.3643C12.4769 24.3643 14.5111 25.3069 14.8635 25.5825C16.2249 26.6557 16.9778 28.2509 16.9778 30.0493C16.9778 31.282 16.9617 31.3255 16.6254 31.3255C16.4171 31.3255 15.7925 31.1224 15.2159 30.8614C14.6392 30.6149 13.9185 30.3103 13.6141 30.1943C13.3098 30.0783 12.9414 29.9187 12.8133 29.8607C12.6851 29.7882 12.4289 29.6722 12.2367 29.5997C11.3557 29.2516 10.0743 27.8014 9.56178 26.5396C9.28948 25.887 9.17736 23.6536 9.4016 23.4506C9.54576 23.3056 9.57779 23.3201 10.3146 23.6246ZM25.6751 24.8718C25.6591 25.5825 25.563 26.3076 25.4829 26.4671C25.3868 26.6267 25.2426 26.9167 25.1465 27.1197C24.3937 28.715 23.4487 29.3676 19.6847 30.9484C19.1881 31.1514 18.6275 31.3255 18.4513 31.3255C18.115 31.3255 18.099 31.253 18.099 30.1508C18.099 27.2793 19.3003 25.7275 22.5037 24.5093C22.9522 24.3353 23.5608 24.1032 23.8652 23.9872C24.1695 23.8712 24.5379 23.7116 24.666 23.6391C24.7942 23.5666 25.0825 23.5231 25.3067 23.5376C25.7071 23.5666 25.7071 23.5811 25.6751 24.8718Z"/>
</mask>
<path d="M17.0098 0.246544C16.8176 0.391569 16.1929 0.797639 15.6163 1.1602C15.0397 1.52277 14.3669 1.95784 14.1267 2.14637C13.8864 2.3204 13.2938 2.71197 12.8133 3.00203C12.3328 3.30658 11.3557 3.91568 10.6509 4.37976C7.62369 6.35211 5.55747 7.70085 1.76138 10.1518C-0.272807 11.457 -0.240772 11.428 0.351865 12.0371C0.992555 12.6897 1.80943 13.8499 2.16181 14.5896C2.91462 16.1413 2.93064 16.3879 3.04276 21.9713C3.15488 27.6708 3.13886 27.5548 4.03583 29.2661C4.53236 30.1798 5.71764 31.427 6.45443 31.7751C6.8869 31.9926 12.1566 34.3855 14.8154 35.5602C17.0739 36.5754 16.9778 36.4449 16.9778 38.3012C16.9778 39.2439 17.0418 39.8965 17.1539 39.9545C17.234 40.0125 17.4903 40.0125 17.7145 39.969C18.099 39.882 18.099 39.853 18.099 38.3157C18.099 36.5754 18.163 36.4449 19.3803 35.9518C19.6847 35.8213 20.886 35.3137 22.0232 34.8206C28.4781 32.0071 28.7504 31.8766 30.0158 30.6149C30.8487 29.8172 31.153 29.3386 31.5534 28.3235C31.8417 27.5548 31.8738 27.1197 31.8738 22.6965C31.8738 17.7511 31.9539 16.9825 32.6266 15.0826C32.9469 14.1545 33.6997 13.0233 34.5326 12.1821C35.2374 11.4715 35.2054 11.3555 34.0201 10.6159C32.979 9.97774 32.6746 9.77471 31.4573 8.94806C30.8967 8.571 30.4162 8.26645 30.3682 8.26645C30.2881 8.26645 29.3911 7.68634 25.0825 4.82934C24.3777 4.36526 23.737 3.95919 23.6409 3.93019C23.4968 3.87218 22.3756 3.14705 18.9479 0.870152C18.2271 0.391568 17.5704 0 17.4903 0C17.4102 0 17.202 0.116021 17.0098 0.246544ZM18.5635 1.91433C19.092 2.26239 19.6686 2.63946 19.8609 2.75548C20.0531 2.8715 20.8059 3.36459 21.5266 3.84317C22.2634 4.32175 23.0163 4.81484 23.2245 4.93086C23.4167 5.04688 23.8812 5.35143 24.2496 5.59798C24.602 5.84452 25.1946 6.20709 25.547 6.41012C25.8994 6.61316 26.3478 6.90321 26.54 7.04823C26.7322 7.20776 27.5171 7.71535 28.2699 8.19393C29.0227 8.67252 30.1279 9.39764 30.7366 9.78921C31.3452 10.1953 32.1621 10.7174 32.5785 10.9494C33.4275 11.428 33.4915 11.7035 32.9309 12.3707C32.2742 13.1683 31.6015 14.401 31.2331 15.5322C30.8967 16.5329 30.8647 16.9535 30.8166 21.6088C30.7366 27.1342 30.6405 27.9464 29.8556 29.1501C29.0868 30.3393 28.0296 31.1224 26.1076 31.9201C25.2907 32.2681 21.6067 33.8634 19.9089 34.6176C19.092 34.9801 18.3552 35.2267 18.2752 35.1686C18.0829 35.0671 18.0349 33.0803 18.2271 32.8337C18.2912 32.7322 18.8518 32.4567 19.4604 32.1956C22.8401 30.7889 23.5769 30.4118 24.4738 29.6142C25.531 28.657 25.7872 28.367 26.1877 27.6853C26.4439 27.2213 26.54 26.9602 26.9084 25.481C26.9885 25.1474 27.0526 24.2047 27.0686 23.3781C27.0686 21.7248 26.9565 21.5508 26.1556 21.9423C25.9154 22.0584 25.0665 22.4064 24.2656 22.6965C23.4808 22.9865 22.6799 23.2766 22.5037 23.3491C22.3275 23.4216 21.7829 23.6391 21.2864 23.8422C20.7899 24.0307 19.973 24.4948 19.4764 24.8573C18.115 25.8725 18.0829 25.8435 18.131 23.6971L18.179 21.8843L18.7396 21.6233C19.044 21.4783 19.6206 21.2462 20.021 21.1012C21.1583 20.7096 22.5998 20.115 23.4808 19.6654C24.4738 19.1724 25.9794 17.5626 26.3799 16.5909C26.7963 15.5902 26.9885 14.314 26.9885 12.6897C26.9885 10.7319 26.9084 10.6304 25.8513 11.0799C24.3937 11.7035 22.6479 12.3272 22.3595 12.3272C22.2314 12.3272 21.7028 11.9501 21.1903 11.486C17.7306 8.41147 17.6505 8.35346 17.2661 8.5855C17.0578 8.71602 15.9847 9.60068 14.8635 10.5869C12.9094 12.2836 12.7973 12.3417 12.3007 12.2546C12.0124 12.1966 11.628 12.0516 11.4518 11.9501C11.2756 11.8341 11.0514 11.7471 10.9393 11.7471C10.8432 11.7471 10.2826 11.544 9.68991 11.2975C8.10421 10.6449 8.10421 10.6449 8.04014 12.6172C7.97607 14.5605 8.18429 15.6917 8.82498 16.8955C9.68991 18.5197 11.1475 19.6219 13.8063 20.6661C14.0947 20.7676 14.5912 20.9707 14.9275 21.0867C15.2479 21.2172 15.5843 21.3187 15.6643 21.3187C15.7604 21.3187 16.0968 21.4492 16.4011 21.6233L16.9778 21.9278V23.7987C16.9778 25.887 16.8977 26.003 16.0808 25.2199C15.5843 24.7413 14.3349 23.9292 14.0947 23.9292C14.0306 23.9292 13.7583 23.8422 13.502 23.7261C13.2618 23.6101 12.8773 23.4506 12.6531 23.3636C12.4289 23.2911 11.9163 23.088 11.4999 22.9285C11.0834 22.7545 10.6509 22.624 10.5388 22.624C10.4107 22.624 10.2505 22.5659 10.1544 22.4934C9.8661 22.2324 8.3765 21.7828 8.18429 21.8843C7.96005 22.0148 8.02412 25.3214 8.2804 26.3946C8.72888 28.2509 10.3466 29.9332 12.6531 30.9194C13.486 31.282 14.7994 31.8476 15.5843 32.1811L16.9778 32.7902V33.9359C16.9778 34.5595 16.9137 35.1106 16.8336 35.1541C16.7535 35.2122 16.4812 35.1396 16.2249 35.0236C15.9847 34.9076 13.7743 33.9214 11.3237 32.8337C6.34231 30.6149 5.84578 30.2958 4.94881 28.599L4.42024 27.6273L4.30812 22.4789C4.21202 17.6496 4.03583 15.6337 3.66743 15.3002C3.58735 15.2277 3.52328 15.0681 3.52328 14.9376C3.52328 14.6911 2.46614 12.7477 2.25792 12.6172C2.06571 12.4867 1.60121 11.8341 1.60121 11.6745C1.60121 11.515 2.09774 11.1815 5.4934 8.97707C6.31028 8.45498 7.83191 7.4688 8.88905 6.78719C9.94619 6.10557 11.5479 5.06138 12.4609 4.48128C13.3739 3.88668 14.8154 2.94402 15.6643 2.36391C16.5133 1.79832 17.3141 1.31973 17.4262 1.31973C17.5384 1.30523 18.0509 1.58078 18.5635 1.91433ZM19.2522 11.2685C20.1171 12.0516 20.8219 12.7477 20.8219 12.8347C20.8219 12.9073 20.5015 13.1683 20.1011 13.3858C19.3323 13.8354 17.9388 15.1697 17.9388 15.4742C17.9388 15.8223 17.3141 15.6627 17.0258 15.2567C16.6254 14.7056 15.5843 13.7774 14.7674 13.2843L14.0626 12.8492L15.7444 11.3555C16.6574 10.5288 17.4743 9.86172 17.5544 9.86172C17.6345 9.86172 18.4033 10.4998 19.2522 11.2685ZM10.6189 12.7767C13.4059 13.8064 13.9185 14.024 14.5592 14.4735C16.1769 15.6627 16.9617 17.171 16.9778 19.1724C16.9778 20.4196 16.9617 20.4486 16.5933 20.4486C16.1288 20.4486 13.6462 19.5059 12.2046 18.7808C11.5639 18.4617 10.4107 17.3885 10.0903 16.8229C9.48169 15.7498 9.28948 15.0101 9.28948 13.7339C9.28948 12.2836 9.28948 12.2836 10.6189 12.7767ZM25.6751 13.9079C25.6431 15.2422 25.3868 16.1558 24.8422 16.968C24.4098 17.5771 23.1124 18.6938 22.4717 18.9838C21.4305 19.4624 20.0691 20.0135 19.957 20.0135C19.8769 20.0135 19.5886 20.115 19.3003 20.2455C18.2912 20.6806 18.179 20.5501 18.179 18.9983C18.1951 17.403 18.3873 16.7069 19.092 15.7498C19.8128 14.7636 21.0782 13.9659 23.0643 13.2698C23.4647 13.1393 23.9613 12.9508 24.1855 12.8637C25.6591 12.2691 25.7071 12.2981 25.6751 13.9079ZM10.3146 23.6246C11.3877 24.0742 12.1405 24.3643 12.2367 24.3643C12.4769 24.3643 14.5111 25.3069 14.8635 25.5825C16.2249 26.6557 16.9778 28.2509 16.9778 30.0493C16.9778 31.282 16.9617 31.3255 16.6254 31.3255C16.4171 31.3255 15.7925 31.1224 15.2159 30.8614C14.6392 30.6149 13.9185 30.3103 13.6141 30.1943C13.3098 30.0783 12.9414 29.9187 12.8133 29.8607C12.6851 29.7882 12.4289 29.6722 12.2367 29.5997C11.3557 29.2516 10.0743 27.8014 9.56178 26.5396C9.28948 25.887 9.17736 23.6536 9.4016 23.4506C9.54576 23.3056 9.57779 23.3201 10.3146 23.6246ZM25.6751 24.8718C25.6591 25.5825 25.563 26.3076 25.4829 26.4671C25.3868 26.6267 25.2426 26.9167 25.1465 27.1197C24.3937 28.715 23.4487 29.3676 19.6847 30.9484C19.1881 31.1514 18.6275 31.3255 18.4513 31.3255C18.115 31.3255 18.099 31.253 18.099 30.1508C18.099 27.2793 19.3003 25.7275 22.5037 24.5093C22.9522 24.3353 23.5608 24.1032 23.8652 23.9872C24.1695 23.8712 24.5379 23.7116 24.666 23.6391C24.7942 23.5666 25.0825 23.5231 25.3067 23.5376C25.7071 23.5666 25.7071 23.5811 25.6751 24.8718Z" fill="#22C480" stroke="#16A34A" stroke-width="10" mask="url(#path-1-inside-1_2005_4)"/>
<path d="M49.6074 12.7812H52.0879L55.7402 23.2207L59.3926 12.7812H61.873L56.7363 27H54.7441L49.6074 12.7812ZM48.2695 12.7812H50.7402L51.1895 22.957V27H48.2695V12.7812ZM60.7402 12.7812H63.2207V27H60.291V22.957L60.7402 12.7812ZM67.4688 12.7812L70.4375 19.2656L73.4062 12.7812H76.5996L71.9219 21.8242V27H68.9531V21.8242L64.2656 12.7812H67.4688ZM87.4395 24.7148V27H79.8711V24.7148H87.4395ZM80.8281 12.7812V27H77.8984V12.7812H80.8281ZM86.4531 18.5723V20.7988H79.8711V18.5723H86.4531ZM87.4297 12.7812V15.0762H79.8711V12.7812H87.4297ZM93.1426 24.998C93.4876 24.998 93.7936 24.9329 94.0605 24.8027C94.3275 24.666 94.5358 24.4772 94.6855 24.2363C94.8418 23.9889 94.9232 23.6992 94.9297 23.3672H97.5762C97.5697 24.1094 97.3711 24.7702 96.9805 25.3496C96.5898 25.9225 96.0658 26.375 95.4082 26.707C94.7507 27.0326 94.015 27.1953 93.2012 27.1953C92.3809 27.1953 91.6647 27.0586 91.0527 26.7852C90.4473 26.5117 89.9427 26.1341 89.5391 25.6523C89.1354 25.1641 88.8327 24.5977 88.6309 23.9531C88.429 23.3021 88.3281 22.6055 88.3281 21.8633V21.5801C88.3281 20.8314 88.429 20.1348 88.6309 19.4902C88.8327 18.8392 89.1354 18.2728 89.5391 17.791C89.9427 17.3027 90.4473 16.9219 91.0527 16.6484C91.6582 16.375 92.3678 16.2383 93.1816 16.2383C94.0475 16.2383 94.806 16.4043 95.457 16.7363C96.1146 17.0684 96.6289 17.5436 97 18.1621C97.3776 18.7741 97.5697 19.5 97.5762 20.3398H94.9297C94.9232 19.9883 94.8483 19.6693 94.7051 19.3828C94.5684 19.0964 94.3665 18.8685 94.0996 18.6992C93.8392 18.5234 93.5169 18.4355 93.1328 18.4355C92.7227 18.4355 92.3874 18.5234 92.127 18.6992C91.8665 18.8685 91.6647 19.1029 91.5215 19.4023C91.3783 19.6953 91.2773 20.0306 91.2188 20.4082C91.1667 20.7793 91.1406 21.1699 91.1406 21.5801V21.8633C91.1406 22.2734 91.1667 22.6673 91.2188 23.0449C91.2708 23.4225 91.3685 23.7578 91.5117 24.0508C91.6615 24.3438 91.8665 24.5749 92.127 24.7441C92.3874 24.9134 92.7259 24.998 93.1426 24.998ZM98.7578 21.8242V21.6191C98.7578 20.8444 98.8685 20.1315 99.0898 19.4805C99.3112 18.8229 99.6335 18.2533 100.057 17.7715C100.48 17.2897 101.001 16.9154 101.619 16.6484C102.238 16.375 102.947 16.2383 103.748 16.2383C104.549 16.2383 105.262 16.375 105.887 16.6484C106.512 16.9154 107.036 17.2897 107.459 17.7715C107.889 18.2533 108.214 18.8229 108.436 19.4805C108.657 20.1315 108.768 20.8444 108.768 21.6191V21.8242C108.768 22.5924 108.657 23.3053 108.436 23.9629C108.214 24.6139 107.889 25.1836 107.459 25.6719C107.036 26.1536 106.515 26.528 105.896 26.7949C105.278 27.0618 104.568 27.1953 103.768 27.1953C102.967 27.1953 102.254 27.0618 101.629 26.7949C101.01 26.528 100.486 26.1536 100.057 25.6719C99.6335 25.1836 99.3112 24.6139 99.0898 23.9629C98.8685 23.3053 98.7578 22.5924 98.7578 21.8242ZM101.57 21.6191V21.8242C101.57 22.2669 101.609 22.6803 101.688 23.0645C101.766 23.4486 101.889 23.7871 102.059 24.0801C102.234 24.3665 102.462 24.5911 102.742 24.7539C103.022 24.9167 103.364 24.998 103.768 24.998C104.158 24.998 104.493 24.9167 104.773 24.7539C105.053 24.5911 105.278 24.3665 105.447 24.0801C105.617 23.7871 105.74 23.4486 105.818 23.0645C105.903 22.6803 105.945 22.2669 105.945 21.8242V21.6191C105.945 21.1895 105.903 20.7858 105.818 20.4082C105.74 20.0241 105.613 19.6855 105.438 19.3926C105.268 19.0931 105.044 18.8587 104.764 18.6895C104.484 18.5202 104.145 18.4355 103.748 18.4355C103.351 18.4355 103.012 18.5202 102.732 18.6895C102.459 18.8587 102.234 19.0931 102.059 19.3926C101.889 19.6855 101.766 20.0241 101.688 20.4082C101.609 20.7858 101.57 21.1895 101.57 21.6191ZM119.812 24.7148V27H112.654V24.7148H119.812ZM113.602 12.7812V27H110.672V12.7812H113.602ZM126.18 27.1953C125.359 27.1953 124.624 27.0651 123.973 26.8047C123.322 26.5378 122.768 26.1699 122.312 25.7012C121.863 25.2324 121.518 24.6888 121.277 24.0703C121.036 23.4453 120.916 22.7812 120.916 22.0781V21.6875C120.916 20.8867 121.03 20.1543 121.258 19.4902C121.486 18.8262 121.811 18.25 122.234 17.7617C122.664 17.2734 123.185 16.8991 123.797 16.6387C124.409 16.3717 125.099 16.2383 125.867 16.2383C126.616 16.2383 127.28 16.362 127.859 16.6094C128.439 16.8568 128.924 17.2083 129.314 17.6641C129.712 18.1198 130.011 18.6667 130.213 19.3047C130.415 19.9362 130.516 20.6393 130.516 21.4141V22.5859H122.117V20.7109H127.752V20.4961C127.752 20.1055 127.68 19.7572 127.537 19.4512C127.4 19.1387 127.192 18.8913 126.912 18.709C126.632 18.5267 126.274 18.4355 125.838 18.4355C125.467 18.4355 125.148 18.5169 124.881 18.6797C124.614 18.8424 124.396 19.0703 124.227 19.3633C124.064 19.6562 123.94 20.0013 123.855 20.3984C123.777 20.7891 123.738 21.2188 123.738 21.6875V22.0781C123.738 22.5013 123.797 22.8919 123.914 23.25C124.038 23.6081 124.21 23.9173 124.432 24.1777C124.66 24.4382 124.933 24.64 125.252 24.7832C125.577 24.9264 125.945 24.998 126.355 24.998C126.863 24.998 127.335 24.9004 127.771 24.7051C128.214 24.5033 128.595 24.2005 128.914 23.7969L130.281 25.2812C130.06 25.6003 129.757 25.9062 129.373 26.1992C128.995 26.4922 128.54 26.7331 128.006 26.9219C127.472 27.1042 126.863 27.1953 126.18 27.1953ZM134.871 18.6895V27H132.059V16.4336H134.695L134.871 18.6895ZM134.461 21.3457H133.699C133.699 20.5645 133.8 19.8613 134.002 19.2363C134.204 18.6048 134.487 18.0677 134.852 17.625C135.216 17.1758 135.649 16.834 136.15 16.5996C136.658 16.3587 137.225 16.2383 137.85 16.2383C138.344 16.2383 138.797 16.3099 139.207 16.4531C139.617 16.5964 139.969 16.8242 140.262 17.1367C140.561 17.4492 140.789 17.8626 140.945 18.377C141.108 18.8913 141.189 19.5195 141.189 20.2617V27H138.357V20.252C138.357 19.7832 138.292 19.4186 138.162 19.1582C138.032 18.8978 137.84 18.7155 137.586 18.6113C137.339 18.5007 137.033 18.4453 136.668 18.4453C136.29 18.4453 135.962 18.5202 135.682 18.6699C135.408 18.8197 135.18 19.028 134.998 19.2949C134.822 19.5553 134.689 19.8613 134.598 20.2129C134.507 20.5645 134.461 20.9421 134.461 21.3457ZM149.041 24.0801C149.041 23.8783 148.982 23.696 148.865 23.5332C148.748 23.3704 148.53 23.2207 148.211 23.084C147.898 22.9408 147.446 22.8105 146.854 22.6934C146.32 22.5762 145.822 22.4297 145.359 22.2539C144.904 22.0716 144.507 21.8535 144.168 21.5996C143.836 21.3457 143.576 21.0462 143.387 20.7012C143.198 20.3496 143.104 19.9492 143.104 19.5C143.104 19.0573 143.198 18.6406 143.387 18.25C143.582 17.8594 143.859 17.5143 144.217 17.2148C144.581 16.9089 145.024 16.6712 145.545 16.502C146.072 16.3262 146.665 16.2383 147.322 16.2383C148.24 16.2383 149.028 16.3848 149.686 16.6777C150.35 16.9707 150.857 17.3743 151.209 17.8887C151.567 18.3965 151.746 18.9759 151.746 19.627H148.934C148.934 19.3535 148.875 19.1094 148.758 18.8945C148.647 18.6732 148.471 18.5007 148.23 18.377C147.996 18.2467 147.69 18.1816 147.312 18.1816C147 18.1816 146.73 18.237 146.502 18.3477C146.274 18.4518 146.098 18.5951 145.975 18.7773C145.857 18.9531 145.799 19.1484 145.799 19.3633C145.799 19.526 145.831 19.6725 145.896 19.8027C145.968 19.9264 146.082 20.0404 146.238 20.1445C146.395 20.2487 146.596 20.3464 146.844 20.4375C147.098 20.5221 147.41 20.6003 147.781 20.6719C148.543 20.8281 149.223 21.0332 149.822 21.2871C150.421 21.5345 150.896 21.873 151.248 22.3027C151.6 22.7259 151.775 23.2826 151.775 23.9727C151.775 24.4414 151.671 24.8711 151.463 25.2617C151.255 25.6523 150.955 25.9941 150.564 26.2871C150.174 26.5736 149.705 26.7982 149.158 26.9609C148.618 27.1172 148.009 27.1953 147.332 27.1953C146.349 27.1953 145.516 27.0195 144.832 26.668C144.155 26.3164 143.641 25.8704 143.289 25.3301C142.944 24.7832 142.771 24.2233 142.771 23.6504H145.438C145.451 24.0345 145.548 24.3438 145.73 24.5781C145.919 24.8125 146.157 24.9818 146.443 25.0859C146.736 25.1901 147.052 25.2422 147.391 25.2422C147.755 25.2422 148.058 25.1934 148.299 25.0957C148.54 24.9915 148.722 24.8548 148.846 24.6855C148.976 24.5098 149.041 24.3079 149.041 24.0801Z" fill="#111827"/>
</svg>
